<svg width="34" height="33" viewBox="0 0 34 33" fill="none" xmlns="http://www.w3.org/2000/svg">
<g clip-path="url(#clip0_23_22)">
<path d="M23.4537 10.9633H9.74936C9.20419 10.9633 8.68134 11.1799 8.29585 11.5654C7.91035 11.9509 7.69378 12.4738 7.69378 13.0189V27.065C7.69548 28.6092 8.30966 30.0897 9.40158 31.1816C10.4935 32.2735 11.974 32.8877 13.5182 32.8894H19.6849C21.2291 32.8877 22.7096 32.2735 23.8015 31.1816C24.8934 30.0897 25.5076 28.6092 25.5093 27.065V13.0189C25.5093 12.4738 25.2927 11.9509 24.9072 11.5654C24.5217 11.1799 23.9989 10.9633 23.4537 10.9633Z" fill="#D5FF67"/>
<path d="M11.8191 8.56474H10.7772C10.5991 8.55929 10.4301 8.48472 10.3061 8.35684C10.1821 8.22895 10.1127 8.0578 10.1127 7.87965C10.1127 7.70151 10.1821 7.53036 10.3061 7.40247C10.4301 7.27459 10.5991 7.20002 10.7772 7.19457H11.8184C11.9102 7.19176 12.0015 7.2074 12.0871 7.24056C12.1727 7.27373 12.2507 7.32374 12.3166 7.38763C12.3825 7.45153 12.4349 7.528 12.4706 7.61252C12.5064 7.69704 12.5248 7.78788 12.5248 7.87965C12.5248 7.97143 12.5064 8.06227 12.4706 8.14679C12.4349 8.23131 12.3825 8.30778 12.3166 8.37167C12.2507 8.43557 12.1727 8.48558 12.0871 8.51874C12.0015 8.55191 11.9102 8.56755 11.8184 8.56474H11.8191Z" fill="#ADB8BC"/>
<path d="M21.2266 8.56475H14.1894C14.0977 8.56756 14.0063 8.55191 13.9208 8.51875C13.8352 8.48558 13.7571 8.43557 13.6913 8.37168C13.6254 8.30778 13.573 8.23131 13.5372 8.14679C13.5015 8.06227 13.483 7.97143 13.483 7.87966C13.483 7.78788 13.5015 7.69704 13.5372 7.61252C13.573 7.52801 13.6254 7.45153 13.6913 7.38764C13.7571 7.32375 13.8352 7.27373 13.9208 7.24057C14.0063 7.2074 14.0977 7.19176 14.1894 7.19457H21.2266C21.2931 7.19504 21.3591 7.18214 21.4205 7.15665C21.482 7.13116 21.5377 7.0936 21.5844 7.04618C21.6338 6.99901 21.6731 6.94229 21.7 6.87946C21.7268 6.81662 21.7406 6.749 21.7405 6.68067C21.7405 6.54438 21.6864 6.41367 21.59 6.31729C21.4936 6.22092 21.3629 6.16678 21.2266 6.16678H18.6436C18.4656 6.16132 18.2966 6.08676 18.1726 5.95887C18.0486 5.83099 17.9792 5.65984 17.9792 5.48169C17.9792 5.30354 18.0486 5.13239 18.1726 5.00451C18.2966 4.87662 18.4656 4.80205 18.6436 4.7966H21.2266C21.7261 4.79728 22.2049 4.996 22.5581 5.34918C22.9113 5.70237 23.11 6.1812 23.1107 6.68067C23.109 7.17984 22.9099 7.65808 22.557 8.01104C22.204 8.36401 21.7258 8.56305 21.2266 8.56475Z" fill="#ADB8BC"/>
<path d="M16.2726 6.16677H13.3466C12.8475 6.16508 12.3692 5.96604 12.0163 5.61307C11.6633 5.26011 11.4643 4.78187 11.4626 4.2827C11.4632 3.78322 11.662 3.3044 12.0151 2.95121C12.3683 2.59803 12.8472 2.39931 13.3466 2.39863H18.1432C18.2099 2.39884 18.2759 2.38565 18.3374 2.35982C18.3989 2.334 18.4545 2.29608 18.501 2.24831C18.5503 2.20129 18.5895 2.14478 18.6163 2.08218C18.6432 2.01958 18.657 1.95219 18.6571 1.88409C18.6571 1.7478 18.603 1.61708 18.5066 1.52071C18.4102 1.42434 18.2795 1.37019 18.1432 1.37019H17.2728C17.1811 1.373 17.0897 1.35736 17.0041 1.3242C16.9186 1.29103 16.8405 1.24102 16.7746 1.17712C16.7088 1.11323 16.6564 1.03676 16.6206 0.952238C16.5848 0.86772 16.5664 0.77688 16.5664 0.685104C16.5664 0.593329 16.5848 0.502488 16.6206 0.417971C16.6564 0.333453 16.7088 0.256979 16.7746 0.193085C16.8405 0.129191 16.9186 0.0791783 17.0041 0.0460134C17.0897 0.0128485 17.1811 -0.00279323 17.2728 1.60291e-05H18.1432C18.6427 0.000695824 19.1215 0.199414 19.4747 0.552599C19.8279 0.905784 20.0266 1.38461 20.0273 1.88409C20.0284 2.13258 19.9796 2.37877 19.8839 2.60806C19.7881 2.83735 19.6473 3.04508 19.4697 3.21894C19.2964 3.39437 19.0898 3.53339 18.862 3.62782C18.6342 3.72225 18.3898 3.77018 18.1432 3.7688H13.3466C13.2103 3.7688 13.0796 3.82295 12.9833 3.91932C12.8869 4.0157 12.8327 4.14641 12.8327 4.2827C12.8323 4.34924 12.8452 4.41519 12.8707 4.47665C12.8961 4.53811 12.9337 4.59382 12.9811 4.6405C13.0283 4.68992 13.085 4.72925 13.1479 4.75608C13.2107 4.78291 13.2783 4.7967 13.3466 4.7966H16.2726C16.3644 4.79379 16.4557 4.80943 16.5413 4.84259C16.6269 4.87576 16.7049 4.92577 16.7708 4.98967C16.8367 5.05356 16.8891 5.13003 16.9248 5.21455C16.9606 5.29907 16.979 5.38991 16.979 5.48169C16.979 5.57346 16.9606 5.6643 16.9248 5.74882C16.8891 5.83334 16.8367 5.90981 16.7708 5.97371C16.7049 6.0376 16.6269 6.08761 16.5413 6.12078C16.4557 6.15394 16.3644 6.16958 16.2726 6.16677Z" fill="#ADB8BC"/>
<path d="M14.9025 1.37019H13.8605C13.6825 1.36474 13.5135 1.29017 13.3895 1.16229C13.2655 1.0344 13.1961 0.863253 13.1961 0.685104C13.1961 0.506955 13.2655 0.335806 13.3895 0.207922C13.5135 0.0800382 13.6825 0.00546921 13.8605 1.60291e-05H14.9018C14.9935 -0.00279323 15.0849 0.0128485 15.1705 0.0460133C15.2561 0.0791782 15.3341 0.129191 15.4 0.193085C15.4659 0.256979 15.5182 0.333453 15.554 0.41797C15.5898 0.502488 15.6082 0.593329 15.6082 0.685104C15.6082 0.776879 15.5898 0.86772 15.554 0.952238C15.5182 1.03676 15.4659 1.11323 15.4 1.17712C15.3341 1.24102 15.2561 1.29103 15.1705 1.3242C15.0849 1.35736 14.9935 1.373 14.9018 1.37019H14.9025Z" fill="#ADB8BC"/>
<path d="M20.0273 10.9633H18.6571V17.8155H20.0273V10.9633Z" fill="#BF7B17"/>
<path d="M20.7127 17.8149H17.9723C17.5938 17.8149 17.2869 18.1217 17.2869 18.5003V22.2684C17.2869 22.647 17.5938 22.9538 17.9723 22.9538H20.7127C21.0912 22.9538 21.3981 22.647 21.3981 22.2684V18.5003C21.3981 18.1217 21.0912 17.8149 20.7127 17.8149Z" fill="#FFB232"/>
<path d="M23.4537 10.9633H20.3703C20.9155 10.9633 21.4383 11.1799 21.8238 11.5654C22.2093 11.9509 22.4259 12.4738 22.4259 13.0189V27.065C22.4242 28.6092 21.81 30.0897 20.7181 31.1816C19.6262 32.2735 18.1457 32.8877 16.6015 32.8894H19.6849C21.2291 32.8877 22.7096 32.2735 23.8015 31.1816C24.8934 30.0897 25.5076 28.6092 25.5093 27.065V13.0189C25.5093 12.4738 25.2927 11.9509 24.9072 11.5654C24.5217 11.1799 23.9989 10.9633 23.4537 10.9633Z" fill="#B0DD3B"/>
<path d="M28.935 32.8894H4.26801C4.17628 32.8922 4.08492 32.8765 3.99935 32.8434C3.91377 32.8102 3.83573 32.7602 3.76985 32.6963C3.70397 32.6324 3.65159 32.5559 3.61582 32.4714C3.58005 32.3869 3.56162 32.2961 3.56162 32.2043C3.56162 32.1125 3.58005 32.0217 3.61582 31.9372C3.65159 31.8526 3.70397 31.7762 3.76985 31.7123C3.83573 31.6484 3.91377 31.5984 3.99935 31.5652C4.08492 31.532 4.17628 31.5164 4.26801 31.5192H28.935C29.0268 31.5164 29.1181 31.532 29.2037 31.5652C29.2893 31.5984 29.3673 31.6484 29.4332 31.7123C29.4991 31.7762 29.5515 31.8526 29.5872 31.9372C29.623 32.0217 29.6414 32.1125 29.6414 32.2043C29.6414 32.2961 29.623 32.3869 29.5872 32.4714C29.5515 32.5559 29.4991 32.6324 29.4332 32.6963C29.3673 32.7602 29.2893 32.8102 29.2037 32.8434C29.1181 32.8765 29.0268 32.8922 28.935 32.8894Z" fill="#D5FF67"/>
<path d="M26.3373 17.1301H25.5093V18.5003H26.3373C26.6628 18.5006 26.9748 18.6301 27.2049 18.8602C27.4351 19.0903 27.5645 19.4024 27.5649 19.7278V23.0971C27.5645 23.4225 27.4351 23.7346 27.2049 23.9647C26.9748 24.1949 26.6628 24.3243 26.3373 24.3246H25.5093V25.6948H26.3373C27.026 25.694 27.6863 25.42 28.1732 24.933C28.6602 24.446 28.9342 23.7858 28.935 23.0971V19.7278C28.9342 19.0391 28.6602 18.3789 28.1732 17.8919C27.6863 17.4049 27.026 17.1309 26.3373 17.1301Z" fill="#D5FF67"/>
</g>
<defs>
<clipPath id="clip0_23_22">
<rect width="32.8894" height="32.8894" fill="white" transform="translate(0.156837)"/>
</clipPath>
</defs>
</svg>
