<svg width="268" height="52" viewBox="0 0 268 52" fill="none" xmlns="http://www.w3.org/2000/svg">
<path d="M65.9165 19.0919C65.9165 17.7959 65.7365 16.7279 65.3765 15.8879C65.0165 15.0239 64.5005 14.3879 63.8285 13.9799C63.1805 13.5479 62.4005 13.3439 61.4885 13.3679H59.7605V30.2519C59.7605 30.8999 59.7485 31.5239 59.7245 32.1239C59.7005 32.7239 59.6645 33.1799 59.6165 33.4919C60.0245 33.4439 60.5405 33.4199 61.1645 33.4199C61.8125 33.3959 62.2565 33.3839 62.4965 33.3839V36.1559H51.9845V33.7799C52.5365 33.7559 52.9925 33.6839 53.3525 33.5639C53.7365 33.4439 54.0245 33.1679 54.2165 32.7359C54.4325 32.3039 54.5405 31.6079 54.5405 30.6479V13.4039H52.8845C51.5165 13.4279 50.4365 13.8959 49.6445 14.8079C48.8525 15.7199 48.4565 17.1479 48.4565 19.0919H46.0805L46.2605 10.9559H68.0765L68.2925 19.0919H65.9165ZM77.0984 36.7319C75.3464 36.7319 73.7984 36.3479 72.4544 35.5799C71.1104 34.7879 70.0664 33.6839 69.3224 32.2679C68.5784 30.8279 68.2064 29.1359 68.2064 27.1919C68.2064 25.5119 68.5784 23.9399 69.3224 22.4759C70.0664 21.0119 71.1104 19.8359 72.4544 18.9479C73.8224 18.0359 75.4064 17.5799 77.2064 17.5799C78.2144 17.5799 79.1984 17.7239 80.1584 18.0119C81.1184 18.2759 81.9824 18.7439 82.7504 19.4159C83.5424 20.0879 84.1664 20.9999 84.6224 22.1519C85.1024 23.3039 85.3304 24.7439 85.3064 26.4719L73.4984 26.6879C73.4984 27.9839 73.6544 29.1479 73.9664 30.1799C74.3024 31.2119 74.8424 32.0279 75.5864 32.6279C76.3304 33.2279 77.3264 33.5279 78.5744 33.5279C79.0544 33.5279 79.5944 33.4439 80.1944 33.2759C80.8184 33.1079 81.4424 32.8319 82.0664 32.4479C82.7144 32.0399 83.3144 31.4999 83.8664 30.8279L85.4864 32.3399C84.6224 33.5639 83.6984 34.4999 82.7144 35.1479C81.7304 35.7719 80.7464 36.1919 79.7624 36.4079C78.8024 36.6239 77.9144 36.7319 77.0984 36.7319ZM73.7144 24.1679H80.3384C80.3144 23.1599 80.1704 22.3679 79.9064 21.7919C79.6664 21.1919 79.3304 20.7599 78.8984 20.4959C78.4664 20.2319 77.9624 20.0999 77.3864 20.0999C76.3304 20.0999 75.5024 20.4839 74.9024 21.2519C74.3024 21.9959 73.9064 22.9679 73.7144 24.1679ZM97.9455 36.1559C97.8975 35.8199 97.8615 35.5439 97.8375 35.3279C97.8375 35.0879 97.8255 34.8119 97.8015 34.4999C96.9855 35.3159 96.1215 35.8919 95.2095 36.2279C94.2975 36.5639 93.3735 36.7319 92.4375 36.7319C90.9015 36.7319 89.7015 36.2759 88.8375 35.3639C87.9735 34.4519 87.5415 33.3119 87.5415 31.9439C87.5415 30.7919 87.8295 29.8079 88.4055 28.9919C89.0055 28.1759 89.7855 27.5159 90.7455 27.0119C91.7295 26.4839 92.8095 26.0879 93.9855 25.8239C95.1855 25.5359 96.3855 25.3679 97.5855 25.3199V23.4479C97.5855 22.8239 97.5015 22.2599 97.3335 21.7559C97.1895 21.2519 96.9255 20.8559 96.5415 20.5679C96.1815 20.2799 95.6655 20.1479 94.9935 20.1719C94.5375 20.1959 94.0935 20.2919 93.6615 20.4599C93.2295 20.6279 92.8575 20.8679 92.5455 21.1799C92.7375 21.3959 92.8575 21.6359 92.9055 21.8999C92.9535 22.1399 92.9775 22.3559 92.9775 22.5479C92.9775 23.0279 92.7855 23.5319 92.4015 24.0599C92.0175 24.5639 91.4055 24.8039 90.5655 24.7799C89.8455 24.7559 89.2935 24.5039 88.9095 24.0239C88.5255 23.5439 88.3335 22.9799 88.3335 22.3319C88.3335 21.3719 88.6695 20.5439 89.3415 19.8479C90.0375 19.1279 90.9615 18.5759 92.1135 18.1919C93.2655 17.7839 94.5375 17.5799 95.9295 17.5799C98.0415 17.5799 99.6735 18.1319 100.826 19.2359C102.002 20.3159 102.59 22.0559 102.59 24.4559C102.59 25.2719 102.59 25.9679 102.59 26.5439C102.59 27.1199 102.578 27.6959 102.554 28.2719C102.554 28.8479 102.554 29.5439 102.554 30.3599C102.554 30.6959 102.542 31.1759 102.518 31.7999C102.494 32.3999 102.458 32.9759 102.41 33.5279C102.818 33.4799 103.25 33.4559 103.706 33.4559C104.162 33.4319 104.51 33.4199 104.75 33.4199V36.1559H97.9455ZM97.5495 27.8759C96.8775 27.9479 96.2415 28.0679 95.6415 28.2359C95.0415 28.4039 94.5135 28.6319 94.0575 28.9199C93.6255 29.2079 93.2775 29.5559 93.0135 29.9639C92.7735 30.3719 92.6535 30.8279 92.6535 31.3319C92.6775 32.0039 92.8935 32.4839 93.3015 32.7719C93.7095 33.0599 94.1775 33.2039 94.7055 33.2039C95.2575 33.2039 95.7735 33.0839 96.2535 32.8439C96.7335 32.6039 97.1655 32.2919 97.5495 31.9079C97.5495 31.6679 97.5495 31.4399 97.5495 31.2239C97.5495 30.9839 97.5495 30.7439 97.5495 30.5039C97.5495 30.0719 97.5495 29.6399 97.5495 29.2079C97.5495 28.7519 97.5495 28.3079 97.5495 27.8759ZM163.545 19.0199C163.233 17.0279 162.561 15.5279 161.529 14.5199C160.521 13.5119 159.177 12.9959 157.497 12.9719C156.249 12.9719 155.157 13.2599 154.221 13.8359C153.285 14.4119 152.505 15.1799 151.881 16.1399C151.281 17.0999 150.825 18.1919 150.513 19.4159C150.225 20.6399 150.081 21.8999 150.081 23.1959C150.081 25.2599 150.369 27.0959 150.945 28.7039C151.545 30.2879 152.409 31.5359 153.537 32.4479C154.665 33.3599 156.033 33.8159 157.641 33.8159C159.153 33.8159 160.653 33.4319 162.141 32.6639C163.629 31.8719 164.877 30.7799 165.885 29.3879L167.613 30.9719C166.437 32.5799 165.201 33.8039 163.905 34.6439C162.609 35.4599 161.337 36.0119 160.089 36.2999C158.865 36.5879 157.761 36.7319 156.777 36.7319C154.929 36.7319 153.249 36.4079 151.737 35.7599C150.225 35.0879 148.917 34.1759 147.813 33.0239C146.733 31.8479 145.893 30.4919 145.293 28.9559C144.717 27.3959 144.429 25.7159 144.429 23.9159C144.429 22.2839 144.693 20.6639 145.221 19.0559C145.749 17.4479 146.529 15.9959 147.561 14.6999C148.617 13.3799 149.937 12.3359 151.521 11.5679C153.105 10.7759 154.941 10.3799 157.029 10.3799C157.965 10.3799 158.985 10.5359 160.089 10.8479C161.217 11.1359 162.273 11.5679 163.257 12.1439L163.113 10.6319H165.885V19.0199H163.545ZM168.854 33.8159C169.526 33.8159 170.006 33.6839 170.294 33.4199C170.606 33.1559 170.798 32.7839 170.87 32.3039C170.942 31.7999 170.978 31.2359 170.978 30.6119V15.8159C170.978 15.3839 170.99 14.8919 171.014 14.3399C171.038 13.7639 171.074 13.2119 171.122 12.6839C170.738 12.7079 170.282 12.7319 169.754 12.7559C169.25 12.7559 168.866 12.7679 168.602 12.7919V10.0559C169.73 10.0559 170.666 9.99588 171.41 9.87588C172.178 9.75588 172.778 9.61188 173.21 9.44388C173.666 9.27588 173.978 9.11988 174.146 8.97588H176.09V30.3599C176.09 30.6959 176.078 31.1759 176.054 31.7999C176.03 32.3999 175.994 32.9759 175.946 33.5279C176.354 33.4799 176.786 33.4559 177.242 33.4559C177.698 33.4319 178.046 33.4199 178.286 33.4199V36.1559H168.854V33.8159ZM188.097 36.7319C186.657 36.7319 185.493 36.4559 184.605 35.9039C183.741 35.3519 183.105 34.4879 182.697 33.3119C182.313 32.1359 182.121 30.6239 182.121 28.7759V24.6359C182.121 24.2039 182.133 23.7119 182.157 23.1599C182.181 22.5839 182.205 22.0319 182.229 21.5039C181.845 21.5279 181.389 21.5519 180.861 21.5759C180.357 21.5759 179.973 21.5879 179.709 21.6119V18.8759H180.069C181.557 18.8759 182.733 18.7559 183.597 18.5159C184.461 18.2759 185.013 18.0359 185.253 17.7959H187.233V28.8119C187.233 30.3719 187.437 31.5359 187.845 32.3039C188.253 33.0479 188.901 33.4199 189.789 33.4199C190.413 33.4199 191.037 33.2519 191.661 32.9159C192.309 32.5559 192.837 32.1479 193.245 31.6919V24.6359C193.245 24.2039 193.257 23.7119 193.281 23.1599C193.305 22.5839 193.341 22.0319 193.389 21.5039C193.005 21.5279 192.549 21.5519 192.021 21.5759C191.517 21.5759 191.133 21.5879 190.869 21.6119V18.8759H191.733C192.861 18.8759 193.857 18.7559 194.721 18.5159C195.585 18.2519 196.137 18.0119 196.377 17.7959H198.357V30.3599C198.357 30.6959 198.345 31.1759 198.321 31.7999C198.297 32.3999 198.261 32.9759 198.213 33.5279C198.597 33.4799 199.017 33.4559 199.473 33.4559C199.953 33.4319 200.313 33.4199 200.553 33.4199V36.1559H193.713C193.689 35.8439 193.653 35.5319 193.605 35.2199C193.581 34.9079 193.545 34.5959 193.497 34.2839C192.753 34.9079 191.949 35.4719 191.085 35.9759C190.245 36.4799 189.249 36.7319 188.097 36.7319ZM203.69 15.8159C203.69 15.3839 203.69 14.8919 203.69 14.3399C203.714 13.7639 203.75 13.2119 203.798 12.6839C203.414 12.7079 202.958 12.7319 202.43 12.7559C201.926 12.7559 201.542 12.7679 201.278 12.7919V10.0559C202.406 10.0559 203.342 9.99588 204.086 9.87588C204.854 9.75588 205.454 9.61188 205.886 9.44388C206.342 9.27588 206.654 9.11988 206.822 8.97588H208.766V19.5239C209.582 18.8039 210.41 18.2999 211.25 18.0119C212.09 17.7239 212.882 17.5799 213.626 17.5799C215.066 17.5799 216.326 17.9519 217.406 18.6959C218.51 19.4399 219.362 20.4959 219.962 21.8639C220.586 23.2319 220.898 24.8399 220.898 26.6879C220.898 28.6079 220.538 30.3359 219.818 31.8719C219.122 33.3839 218.126 34.5719 216.83 35.4359C215.534 36.2999 213.974 36.7319 212.15 36.7319C211.502 36.7319 210.674 36.5879 209.666 36.2999C208.682 36.0359 207.77 35.4599 206.93 34.5719L205.85 36.1559H203.69V15.8159ZM208.766 30.7559C208.766 31.5719 208.898 32.2199 209.162 32.6999C209.426 33.1799 209.762 33.5279 210.17 33.7439C210.578 33.9599 210.986 34.0799 211.394 34.1039C212.474 34.1279 213.314 33.8159 213.914 33.1679C214.538 32.5199 214.97 31.6679 215.21 30.6119C215.474 29.5319 215.606 28.4039 215.606 27.2279C215.606 26.1239 215.474 25.0799 215.21 24.0959C214.946 23.1119 214.526 22.3199 213.95 21.7199C213.374 21.0959 212.618 20.7959 211.682 20.8199C211.082 20.8439 210.53 20.9999 210.026 21.2879C209.522 21.5519 209.102 21.9119 208.766 22.3679V30.7559Z" fill="#D5FF67"/>
<g clip-path="url(#clip0_23_19)">
<path d="M134.334 13.3336H117.666C117.003 13.3336 116.367 13.597 115.899 14.0658C115.43 14.5347 115.166 15.1705 115.166 15.8336V32.9164C115.168 34.7945 115.915 36.595 117.243 37.923C118.571 39.251 120.372 39.9979 122.25 40H129.75C131.628 39.9979 133.429 39.251 134.757 37.923C136.085 36.595 136.832 34.7945 136.834 32.9164V15.8336C136.834 15.1705 136.57 14.5347 136.101 14.0658C135.633 13.597 134.997 13.3336 134.334 13.3336Z" fill="#D5FF67"/>
<path d="M120.184 10.4164H118.916C118.7 10.4098 118.494 10.3191 118.344 10.1636C118.193 10.008 118.108 9.79989 118.108 9.58323C118.108 9.36656 118.193 9.15841 118.344 9.00288C118.494 8.84735 118.7 8.75666 118.916 8.75002H120.183C120.294 8.74661 120.405 8.76563 120.51 8.80597C120.614 8.8463 120.709 8.90713 120.789 8.98483C120.869 9.06254 120.933 9.15555 120.976 9.25834C121.02 9.36113 121.042 9.47161 121.042 9.58323C121.042 9.69484 121.02 9.80532 120.976 9.90812C120.933 10.0109 120.869 10.1039 120.789 10.1816C120.709 10.2593 120.614 10.3202 120.51 10.3605C120.405 10.4008 120.294 10.4198 120.183 10.4164H120.184Z" fill="#ADB8BC"/>
<path d="M131.625 10.4164H123.066C122.955 10.4198 122.844 10.4008 122.74 10.3605C122.636 10.3202 122.541 10.2593 122.461 10.1816C122.38 10.1039 122.317 10.0109 122.273 9.90812C122.23 9.80533 122.207 9.69484 122.207 9.58323C122.207 9.47161 122.23 9.36113 122.273 9.25834C122.317 9.15555 122.38 9.06254 122.461 8.98483C122.541 8.90713 122.636 8.8463 122.74 8.80597C122.844 8.76563 122.955 8.74661 123.066 8.75002H131.625C131.706 8.75059 131.786 8.73491 131.861 8.70391C131.936 8.67291 132.003 8.62722 132.06 8.56956C132.12 8.51219 132.168 8.4432 132.201 8.36678C132.233 8.29037 132.25 8.20812 132.25 8.12502C132.25 7.95926 132.184 7.80029 132.067 7.68308C131.95 7.56587 131.791 7.50002 131.625 7.50002H128.484C128.267 7.49339 128.062 7.4027 127.911 7.24717C127.76 7.09164 127.676 6.88349 127.676 6.66682C127.676 6.45016 127.76 6.24201 127.911 6.08647C128.062 5.93094 128.267 5.84025 128.484 5.83362H131.625C132.232 5.83444 132.815 6.07613 133.244 6.50567C133.674 6.93521 133.916 7.51756 133.916 8.12502C133.914 8.73211 133.672 9.31374 133.243 9.74302C132.814 10.1723 132.232 10.4144 131.625 10.4164Z" fill="#ADB8BC"/>
<path d="M125.6 7.50002H122.041C121.434 7.49797 120.853 7.25589 120.423 6.82661C119.994 6.39734 119.752 5.8157 119.75 5.20862C119.751 4.60115 119.993 4.01881 120.422 3.58926C120.852 3.15972 121.434 2.91804 122.041 2.91721H127.875C127.956 2.91747 128.036 2.90142 128.111 2.87002C128.186 2.83861 128.254 2.79249 128.31 2.7344C128.37 2.67721 128.418 2.60848 128.45 2.53234C128.483 2.45621 128.5 2.37426 128.5 2.29143C128.5 2.12567 128.434 1.9667 128.317 1.84949C128.2 1.73228 128.041 1.66643 127.875 1.66643H126.816C126.705 1.66985 126.594 1.65082 126.49 1.61049C126.386 1.57015 126.291 1.50933 126.211 1.43162C126.13 1.35391 126.067 1.26091 126.023 1.15812C125.98 1.05532 125.957 0.944844 125.957 0.833228C125.957 0.721611 125.98 0.611131 126.023 0.50834C126.067 0.405549 126.13 0.312542 126.211 0.234834C126.291 0.157127 126.386 0.0963014 126.49 0.0559663C126.594 0.0156312 126.705 -0.00339218 126.816 2.44379e-05H127.875C128.482 0.000851203 129.065 0.242532 129.494 0.672075C129.924 1.10162 130.166 1.68397 130.166 2.29143C130.168 2.59364 130.108 2.89306 129.992 3.17192C129.875 3.45078 129.704 3.70343 129.488 3.91487C129.278 4.12823 129.026 4.29731 128.749 4.41215C128.472 4.527 128.175 4.58529 127.875 4.58362H122.041C121.876 4.58362 121.717 4.64947 121.599 4.76668C121.482 4.88389 121.416 5.04286 121.416 5.20862C121.416 5.28954 121.432 5.36975 121.463 5.44449C121.494 5.51924 121.539 5.58701 121.597 5.64377C121.654 5.70388 121.723 5.75171 121.8 5.78434C121.876 5.81697 121.958 5.83374 122.041 5.83362H125.6C125.712 5.8302 125.823 5.84923 125.927 5.88956C126.031 5.9299 126.126 5.99072 126.206 6.06843C126.286 6.14614 126.35 6.23914 126.393 6.34193C126.437 6.44472 126.459 6.5552 126.459 6.66682C126.459 6.77844 126.437 6.88892 126.393 6.99171C126.35 7.0945 126.286 7.18751 126.206 7.26521C126.126 7.34292 126.031 7.40375 125.927 7.44408C125.823 7.48442 125.712 7.50344 125.6 7.50002V7.50002Z" fill="#ADB8BC"/>
<path d="M123.934 1.66643H122.666C122.45 1.6598 122.244 1.56911 122.094 1.41358C121.943 1.25804 121.858 1.04989 121.858 0.833228C121.858 0.616563 121.943 0.408411 122.094 0.252879C122.244 0.0973473 122.45 0.00665659 122.666 2.44379e-05H123.933C124.044 -0.00339218 124.156 0.0156312 124.26 0.0559663C124.364 0.0963014 124.459 0.157127 124.539 0.234834C124.619 0.312542 124.683 0.405549 124.726 0.50834C124.77 0.611131 124.792 0.721611 124.792 0.833228C124.792 0.944844 124.77 1.05532 124.726 1.15812C124.683 1.26091 124.619 1.35391 124.539 1.43162C124.459 1.50933 124.364 1.57015 124.26 1.61049C124.156 1.65082 124.044 1.66985 123.933 1.66643H123.934Z" fill="#ADB8BC"/>
<path d="M130.166 13.3336H128.5V21.6672H130.166V13.3336Z" fill="#BF7B17"/>
<path d="M131 21.6664H127.667C127.207 21.6664 126.834 22.0396 126.834 22.5V27.0828C126.834 27.5432 127.207 27.9164 127.667 27.9164H131C131.46 27.9164 131.834 27.5432 131.834 27.0828V22.5C131.834 22.0396 131.46 21.6664 131 21.6664Z" fill="#FFB232"/>
<path d="M134.334 13.3336H130.584C131.247 13.3336 131.883 13.597 132.351 14.0658C132.82 14.5347 133.084 15.1705 133.084 15.8336V32.9164C133.082 34.7945 132.335 36.595 131.007 37.923C129.679 39.251 127.878 39.9979 126 40H129.75C131.628 39.9979 133.429 39.251 134.757 37.923C136.085 36.595 136.832 34.7945 136.834 32.9164V15.8336C136.834 15.1705 136.57 14.5347 136.101 14.0658C135.633 13.597 134.997 13.3336 134.334 13.3336Z" fill="#B0DD3B"/>
<path d="M141 40H111C110.888 40.0034 110.777 39.9844 110.673 39.9441C110.569 39.9037 110.474 39.8429 110.394 39.7652C110.314 39.6875 110.25 39.5945 110.207 39.4917C110.163 39.3889 110.141 39.2784 110.141 39.1668C110.141 39.0552 110.163 38.9447 110.207 38.8419C110.25 38.7391 110.314 38.6461 110.394 38.5684C110.474 38.4907 110.569 38.4299 110.673 38.3896C110.777 38.3492 110.888 38.3302 111 38.3336H141C141.112 38.3302 141.223 38.3492 141.327 38.3896C141.431 38.4299 141.526 38.4907 141.606 38.5684C141.686 38.6461 141.75 38.7391 141.793 38.8419C141.837 38.9447 141.859 39.0552 141.859 39.1668C141.859 39.2784 141.837 39.3889 141.793 39.4917C141.75 39.5945 141.686 39.6875 141.606 39.7652C141.526 39.8429 141.431 39.9037 141.327 39.9441C141.223 39.9844 141.112 40.0034 141 40V40Z" fill="#D5FF67"/>
<path d="M137.841 20.8336H136.834V22.5H137.841C138.236 22.5004 138.616 22.6578 138.896 22.9377C139.176 23.2176 139.333 23.5971 139.334 23.993V28.0906C139.333 28.4865 139.176 28.866 138.896 29.1458C138.616 29.4257 138.236 29.5832 137.841 29.5836H136.834V31.25H137.841C138.678 31.249 139.481 30.9158 140.073 30.3235C140.666 29.7312 140.999 28.9282 141 28.0906V23.993C140.999 23.1554 140.666 22.3524 140.073 21.7601C139.481 21.1678 138.678 20.8346 137.841 20.8336V20.8336Z" fill="#D5FF67"/>
</g>
<defs>
<clipPath id="clip0_23_19">
<rect width="40" height="40" fill="white" transform="translate(106)"/>
</clipPath>
</defs>
</svg>
